<mxfile host="Electron" modified="2023-05-10T11:04:40.026Z" agent="Mozilla/5.0 (Windows NT 10.0; Win64; x64) AppleWebKit/537.36 (KHTML, like Gecko) draw.io/21.2.1 Chrome/112.0.5615.87 Electron/24.1.2 Safari/537.36" etag="SKz-8JnqS1I1p4nZ0f5L" version="21.2.1" type="device">
  <diagram name="Page-1" id="2YBvvXClWsGukQMizWep">
    <mxGraphModel dx="1292" dy="1162" grid="1" gridSize="10" guides="1" tooltips="1" connect="1" arrows="1" fold="1" page="1" pageScale="1" pageWidth="850" pageHeight="1100" background="none" math="0" shadow="0">
      <root>
        <mxCell id="0" />
        <mxCell id="1" parent="0" />
        <mxCell id="aM9ryv3xv72pqoxQDRHE-1" value="Contrôleur du jeu" style="shape=umlLifeline;perimeter=lifelinePerimeter;whiteSpace=wrap;html=1;container=0;dropTarget=0;collapsible=0;recursiveResize=0;outlineConnect=0;portConstraint=eastwest;newEdgeStyle={&quot;edgeStyle&quot;:&quot;elbowEdgeStyle&quot;,&quot;elbow&quot;:&quot;vertical&quot;,&quot;curved&quot;:0,&quot;rounded&quot;:0};labelBackgroundColor=default;size=40;fontColor=#374057;strokeColor=#374057;" parent="1" vertex="1">
          <mxGeometry x="80" y="40" width="100" height="310" as="geometry" />
        </mxCell>
        <mxCell id="aM9ryv3xv72pqoxQDRHE-2" value="" style="html=1;points=[];perimeter=orthogonalPerimeter;outlineConnect=0;targetShapes=umlLifeline;portConstraint=eastwest;newEdgeStyle={&quot;edgeStyle&quot;:&quot;elbowEdgeStyle&quot;,&quot;elbow&quot;:&quot;vertical&quot;,&quot;curved&quot;:0,&quot;rounded&quot;:0};fontColor=#374057;strokeColor=#374057;" parent="aM9ryv3xv72pqoxQDRHE-1" vertex="1">
          <mxGeometry x="45" y="90" width="10" height="200.3" as="geometry" />
        </mxCell>
        <mxCell id="aM9ryv3xv72pqoxQDRHE-3" value="Solliter une action du Robot" style="verticalAlign=bottom;startArrow=oval;endArrow=block;startSize=8;edgeStyle=orthogonalEdgeStyle;elbow=vertical;rounded=0;labelBackgroundColor=default;labelBorderColor=none;html=1;fontStyle=0;fontColor=#374057;strokeColor=#374057;" parent="aM9ryv3xv72pqoxQDRHE-1" source="aM9ryv3xv72pqoxQDRHE-1" target="aM9ryv3xv72pqoxQDRHE-2" edge="1">
          <mxGeometry x="0.1586" relative="1" as="geometry">
            <mxPoint x="-60" y="100.30000000000001" as="sourcePoint" />
            <Array as="points">
              <mxPoint x="-10" y="60" />
              <mxPoint x="-10" y="100" />
            </Array>
            <mxPoint as="offset" />
          </mxGeometry>
        </mxCell>
        <mxCell id="aM9ryv3xv72pqoxQDRHE-5" value="Robot" style="shape=umlLifeline;perimeter=lifelinePerimeter;whiteSpace=wrap;html=1;container=0;dropTarget=0;collapsible=0;recursiveResize=0;outlineConnect=0;portConstraint=eastwest;newEdgeStyle={&quot;edgeStyle&quot;:&quot;elbowEdgeStyle&quot;,&quot;elbow&quot;:&quot;vertical&quot;,&quot;curved&quot;:0,&quot;rounded&quot;:0};fontColor=#374057;strokeColor=#374057;" parent="1" vertex="1">
          <mxGeometry x="260" y="40" width="100" height="310" as="geometry" />
        </mxCell>
        <mxCell id="aM9ryv3xv72pqoxQDRHE-6" value="" style="html=1;points=[];perimeter=orthogonalPerimeter;outlineConnect=0;targetShapes=umlLifeline;portConstraint=eastwest;newEdgeStyle={&quot;edgeStyle&quot;:&quot;elbowEdgeStyle&quot;,&quot;elbow&quot;:&quot;vertical&quot;,&quot;curved&quot;:0,&quot;rounded&quot;:0};fontColor=#374057;strokeColor=#374057;" parent="aM9ryv3xv72pqoxQDRHE-5" vertex="1">
          <mxGeometry x="45" y="110.3" width="10" height="150" as="geometry" />
        </mxCell>
        <mxCell id="aM9ryv3xv72pqoxQDRHE-7" value="Prendre action" style="html=1;verticalAlign=bottom;endArrow=block;edgeStyle=elbowEdgeStyle;elbow=vertical;curved=0;rounded=0;labelBackgroundColor=none;fontColor=#374057;strokeColor=#374057;" parent="1" source="aM9ryv3xv72pqoxQDRHE-2" target="aM9ryv3xv72pqoxQDRHE-6" edge="1">
          <mxGeometry x="0.0026" relative="1" as="geometry">
            <mxPoint x="235" y="160.3" as="sourcePoint" />
            <Array as="points">
              <mxPoint x="220" y="160.3" />
            </Array>
            <mxPoint as="offset" />
          </mxGeometry>
        </mxCell>
        <mxCell id="Yk7irKGBs4unOvjQ7Orx-1" value="Agent" style="shape=umlLifeline;perimeter=lifelinePerimeter;whiteSpace=wrap;html=1;container=0;dropTarget=0;collapsible=0;recursiveResize=0;outlineConnect=0;portConstraint=eastwest;newEdgeStyle={&quot;edgeStyle&quot;:&quot;elbowEdgeStyle&quot;,&quot;elbow&quot;:&quot;vertical&quot;,&quot;curved&quot;:0,&quot;rounded&quot;:0};fontColor=#374057;strokeColor=#374057;" parent="1" vertex="1">
          <mxGeometry x="440" y="40" width="100" height="310" as="geometry" />
        </mxCell>
        <mxCell id="Yk7irKGBs4unOvjQ7Orx-2" value="" style="html=1;points=[];perimeter=orthogonalPerimeter;outlineConnect=0;targetShapes=umlLifeline;portConstraint=eastwest;newEdgeStyle={&quot;edgeStyle&quot;:&quot;elbowEdgeStyle&quot;,&quot;elbow&quot;:&quot;vertical&quot;,&quot;curved&quot;:0,&quot;rounded&quot;:0};fontColor=#374057;strokeColor=#374057;" parent="Yk7irKGBs4unOvjQ7Orx-1" vertex="1">
          <mxGeometry x="45" y="130.3" width="10" height="110" as="geometry" />
        </mxCell>
        <mxCell id="Yk7irKGBs4unOvjQ7Orx-3" value="Politique" style="shape=umlLifeline;perimeter=lifelinePerimeter;whiteSpace=wrap;html=1;container=0;dropTarget=0;collapsible=0;recursiveResize=0;outlineConnect=0;portConstraint=eastwest;newEdgeStyle={&quot;edgeStyle&quot;:&quot;elbowEdgeStyle&quot;,&quot;elbow&quot;:&quot;vertical&quot;,&quot;curved&quot;:0,&quot;rounded&quot;:0};fontColor=#374057;strokeColor=#374057;" parent="1" vertex="1">
          <mxGeometry x="620" y="40" width="100" height="310" as="geometry" />
        </mxCell>
        <mxCell id="Yk7irKGBs4unOvjQ7Orx-4" value="" style="html=1;points=[];perimeter=orthogonalPerimeter;outlineConnect=0;targetShapes=umlLifeline;portConstraint=eastwest;newEdgeStyle={&quot;edgeStyle&quot;:&quot;elbowEdgeStyle&quot;,&quot;elbow&quot;:&quot;vertical&quot;,&quot;curved&quot;:0,&quot;rounded&quot;:0};fontColor=#374057;strokeColor=#374057;" parent="Yk7irKGBs4unOvjQ7Orx-3" vertex="1">
          <mxGeometry x="45" y="110.3" width="10" height="109.7" as="geometry" />
        </mxCell>
        <mxCell id="Yk7irKGBs4unOvjQ7Orx-6" value="Prendre action" style="edgeStyle=elbowEdgeStyle;rounded=0;orthogonalLoop=1;jettySize=auto;html=1;elbow=vertical;curved=0;endArrow=block;endFill=1;labelBackgroundColor=none;fontColor=#374057;strokeColor=#374057;" parent="1" source="aM9ryv3xv72pqoxQDRHE-6" target="Yk7irKGBs4unOvjQ7Orx-2" edge="1">
          <mxGeometry x="0.0028" y="10" relative="1" as="geometry">
            <Array as="points">
              <mxPoint x="390" y="180.3" />
            </Array>
            <mxPoint as="offset" />
          </mxGeometry>
        </mxCell>
        <mxCell id="Yk7irKGBs4unOvjQ7Orx-7" style="edgeStyle=elbowEdgeStyle;rounded=0;orthogonalLoop=1;jettySize=auto;html=1;elbow=vertical;curved=0;endArrow=block;endFill=1;fontColor=#374057;strokeColor=#374057;" parent="1" source="Yk7irKGBs4unOvjQ7Orx-2" target="Yk7irKGBs4unOvjQ7Orx-4" edge="1">
          <mxGeometry relative="1" as="geometry">
            <Array as="points">
              <mxPoint x="580" y="200.3" />
            </Array>
          </mxGeometry>
        </mxCell>
        <mxCell id="Yk7irKGBs4unOvjQ7Orx-8" value="Prendre action" style="edgeLabel;html=1;align=center;verticalAlign=middle;resizable=0;points=[];labelBackgroundColor=none;fontColor=#374057;" parent="Yk7irKGBs4unOvjQ7Orx-7" vertex="1" connectable="0">
          <mxGeometry x="-0.3741" y="-1" relative="1" as="geometry">
            <mxPoint x="32" y="-11" as="offset" />
          </mxGeometry>
        </mxCell>
        <mxCell id="Yk7irKGBs4unOvjQ7Orx-9" value="Action aléatoire&lt;br&gt;(influencée par le &lt;br&gt;poid des action)" style="edgeStyle=elbowEdgeStyle;rounded=0;orthogonalLoop=1;jettySize=auto;html=1;elbow=vertical;curved=0;dashed=1;strokeColor=#374057;endArrow=open;endFill=0;dashPattern=8 8;labelBackgroundColor=default;fontColor=#374057;" parent="1" source="Yk7irKGBs4unOvjQ7Orx-4" target="Yk7irKGBs4unOvjQ7Orx-2" edge="1">
          <mxGeometry y="-10" relative="1" as="geometry">
            <Array as="points">
              <mxPoint x="580" y="240.3" />
            </Array>
            <mxPoint as="offset" />
          </mxGeometry>
        </mxCell>
        <mxCell id="Yk7irKGBs4unOvjQ7Orx-10" style="edgeStyle=elbowEdgeStyle;rounded=0;orthogonalLoop=1;jettySize=auto;html=1;elbow=vertical;curved=0;dashed=1;strokeColor=none;dashPattern=8 8;fontColor=#374057;" parent="1" source="Yk7irKGBs4unOvjQ7Orx-2" target="aM9ryv3xv72pqoxQDRHE-6" edge="1">
          <mxGeometry relative="1" as="geometry">
            <Array as="points">
              <mxPoint x="400" y="260.3" />
            </Array>
          </mxGeometry>
        </mxCell>
        <mxCell id="Yk7irKGBs4unOvjQ7Orx-11" value="Action" style="edgeStyle=elbowEdgeStyle;rounded=0;orthogonalLoop=1;jettySize=auto;html=1;elbow=vertical;curved=0;strokeColor=#374057;endArrow=open;endFill=0;labelBackgroundColor=none;dashed=1;dashPattern=8 8;fontColor=#374057;" parent="1" source="Yk7irKGBs4unOvjQ7Orx-2" target="aM9ryv3xv72pqoxQDRHE-6" edge="1">
          <mxGeometry y="-10" relative="1" as="geometry">
            <mxPoint x="480" y="260.61" as="sourcePoint" />
            <mxPoint x="320" y="260.3" as="targetPoint" />
            <mxPoint as="offset" />
            <Array as="points">
              <mxPoint x="330" y="260.3" />
            </Array>
          </mxGeometry>
        </mxCell>
        <mxCell id="Yk7irKGBs4unOvjQ7Orx-12" value="Action" style="edgeStyle=elbowEdgeStyle;rounded=0;orthogonalLoop=1;jettySize=auto;html=1;elbow=vertical;curved=0;dashed=1;strokeColor=#374057;endArrow=open;endFill=0;dashPattern=8 8;labelBackgroundColor=none;fontColor=#374057;" parent="1" source="aM9ryv3xv72pqoxQDRHE-6" target="aM9ryv3xv72pqoxQDRHE-2" edge="1">
          <mxGeometry y="-10" relative="1" as="geometry">
            <mxPoint x="300" y="280.3" as="sourcePoint" />
            <mxPoint x="140" y="280.3" as="targetPoint" />
            <mxPoint as="offset" />
            <Array as="points">
              <mxPoint x="155" y="280.3" />
            </Array>
          </mxGeometry>
        </mxCell>
      </root>
    </mxGraphModel>
  </diagram>
</mxfile>
